<?xml version="1.0" encoding="utf-8"?>
<!-- Generator: Adobe Illustrator 23.0.5, SVG Export Plug-In . SVG Version: 6.00 Build 0)  -->
<svg version="1.1" id="Capa_1" xmlns="http://www.w3.org/2000/svg" xmlns:xlink="http://www.w3.org/1999/xlink" x="0px" y="0px"
	 viewBox="0 0 5219.8 574" style="enable-background:new 0 0 5219.8 574;" xml:space="preserve">
<style type="text/css">
	.st0{fill:none;stroke:#0AD9E8;stroke-width:7;stroke-miterlimit:10;}
</style>
<g>
	<g>
		<g>
			<path class="st0" d="M258.9,250.5c-6-16-23.1-26.7-39.8-24.9c-16.5,1.8-89.2,66-100.4,79c-13.2,15.4-27.1,29.5-37.2,47.1
				c-0.9,1.6-1.9,3.3-1.8,5.2c0,0.8,0.2,1.6,0.6,2.3c3.8-0.9,7.6-1.8,11.2-2.7c13.5-3.3,26.9-6.8,40.5-9.7
				c26.9-32.1,74.7-108.8,100.5-101.5c6.2,1.8,10,6.9,14.1,11.5c3.3,3.7,12,9.7,13.5,0.7C260.4,255.1,259.7,252.7,258.9,250.5z"/>
		</g>
		<g>
			<path class="st0" d="M461.4,234.4c-0.8-1-1.9-1.8-3-2.5c-16.6-11.5-35-17.9-53.4-25.9c-15.5-6.8-107.8-32.3-123.3-26.4
				c-15.6,5.9-26.2,23.3-24.7,40.5c0.2,2.4,0.7,4.9,2.1,6.9c5.2,7.5,10.4-1.8,11.7-6.7c1.6-6,2.8-12.4,7.5-16.8
				c19.3-17.8,91.5,27.4,130.2,45.4C425.9,243,443.6,238.3,461.4,234.4z"/>
		</g>
		<g>
			<path class="st0" d="M473.8,240.3c-1.1-3.1-1.1-3.6-2.5-8c-1.4-4.2-5.3-1.3-8.8-0.1c-8.9,3-17.7,5.8-26.1,8.9
				c-13.3,4.9-25.6,9-39.1,13.4c-27.1,8.7-54,18.5-80.9,27.7c-13.8,4.7-27.8,9.5-41.8,14.2c-13.9,4.8-27.9,9.6-41.7,14.3
				c-26.9,9.2-54.1,18-80.9,27.7c-13.4,4.8-25.6,9.1-39.1,13.4c-8.5,2.7-17.2,5.9-26.1,8.9c-3.5,1.2-8.4,1.3-7,5.5
				c1.4,4.4,1.8,4.8,2.7,7.9c8.6,27.8,18.8,57.6,27.9,85.4c2.7,8.2,9.6,11,16.6,15c8.2,4.7,15.4,10.8,23.7,15.3
				c8.2,4.5,18,7.6,27.3,5.2c10.1-2.5,21-6.5,30.8-9.9c18.8-6.5,36-12.3,54.8-18.7c7.1-2.4,17-5.1,20.4-12.8
				c0.5-1.1,0.9-2.4,1.3-3.9c2.3-9.9,4.5-19.8,6.5-29.8c1.6-8,2.1-17.1,5.7-24.4c1.1-2.2,3.1-3.4,5.1-4.8c0.9-0.6,1.7-0.6,2.6-0.9
				c0.9-0.4,1.6-0.8,2.6-0.9c2.4-0.2,4.7-0.5,6.9,0.6c7.2,3.7,13,10.6,18.9,16c7.5,6.7,15,13.3,22.7,19.8c1.1,1,2.2,1.7,3.3,2.3
				c7.2,4,16.8,0,23.8-2.4c18.8-6.4,35.9-12.3,54.8-18.7c9.8-3.3,20.8-6.9,30.4-11.1c8.8-3.9,14.8-12.3,18.7-21
				c3.9-8.7,6.1-18.1,9.9-26.8c3.2-7.5,7.1-13.9,4.4-22.1C492.6,297.8,483.3,267.8,473.8,240.3z"/>
		</g>
		<g>
			<path class="st0" d="M223.9,348c-12.3,4.2-55.6,18.8-67.9,23.2c-6.1,2.2-11.7,4.2-17.9,6.1c-3.9,1.2-7.9,2.7-11.9,4.1
				c-1.6,0.6-3.8,0.6-3.2,2.5c0.7,2,0.8,2.2,1.2,3.6c3.9,12.7,12.6,38.6,16.8,51.3c1.2,3.8,4.4,5,7.6,6.8c3.7,2.1,7.1,4.9,10.8,7
				c3.7,2.1,8.2,3.5,12.5,2.4c4.6-1.2,9.6-3,14.1-4.5c8.6-3,47.3-16.2,55.9-19.1c3.2-1.1,7.8-2.3,9.4-5.8c0.2-0.5,0.4-1.1,0.6-1.8
				c1.1-4.5,2.1-9.1,3-13.6c0.6-3.1,0.9-6.7,2-9.7c0.3-1,0.4-2,0.1-3L239,342.7L223.9,348z"/>
		</g>
		<g>
			<path class="st0" d="M345.1,306.6c12.3-4.2,55.5-19.2,67.9-23.2c6.2-2,11.8-3.9,17.9-6.1c3.8-1.4,7.9-2.7,11.9-4.1
				c1.6-0.6,3.4-1.9,4,0c0.7,2,0.6,2.2,1.1,3.7c4.3,12.6,12.6,38.6,16.8,51.3c1.2,3.8-0.6,6.7-2,10.1c-1.7,4-2.7,8.3-4.5,12.3
				c-1.8,4-4.5,7.8-8.6,9.6c-4.4,1.9-9.4,3.5-13.9,5.1c-8.6,2.9-47.3,16.2-55.9,19.1c-3.2,1.1-7.6,2.9-10.9,1.1
				c-0.5-0.3-1-0.6-1.5-1.1c-3.5-3-7-6-10.4-9.1c-2.4-2.1-4.6-4.8-7.3-6.5c-0.8-0.6-1.5-1.3-1.8-2.3l-17.9-54.8L345.1,306.6z"/>
		</g>
	</g>
</g>
<g>
	<path class="st0" d="M4919.8,655.9c1-0.4,2.1-1,2.6-2c0.5-1.1,0.1-2.3-0.3-3.4c-45-119.7-46-123.6-90.5-243.5l0,0c0,0,0-0.1,0-0.1
		c0,0,0-0.1,0-0.1l0,0c-44.6-119.9-89.6-239.6-133.8-359.7c-0.4-1.1-0.9-2.3-2-2.8c-1-0.5-2.2-0.1-3.2,0.2
		c-6.1,1.9-30.6,5.8-32.5,14.1c-0.7,2.7,0.3,5.4,1.4,8c8.1,20.1,13.1,22.7-8,31c-16.3,6.4-32.8,12.7-49.1,19
		c-31.6,12.2-63,24.9-94.8,36.6c-19.5,7.5-22.8-3.4-27.2-18.4c-1-3.2-4.2-5.2-7.5-4.7c-10.1,1.8-22.3,4.9-29.3,11.2
		c-8.9,8-4.8,11,0,23.9c4.8,12.9,9.5,25.7,14.3,38.6c19,51.5,38.1,102.9,57.1,154.4c17.9,48.4,35.8,96.7,53.7,145.1l0,0
		c0,0,0,0.1,0,0.1s0,0.1,0,0.1l0,0c18,48.3-5.5-15.4,12.5,32.9c19.2,51.4,38.4,102.8,57.6,154.2c4.8,12.9,8,21.5,12.8,34.3
		c4.8,12.9,3.7,17.9,15.6,18.2c9.5,0.2,20.7-5.3,29.5-10.5c2.9-1.7,4-5.3,2.7-8.4c-6.4-14.3-11.2-24.7,8.6-31.7
		c31.7-11.7,63.9-22.6,95.8-33.9c16.6-5.9,33.1-11.8,49.7-17.6c21.5-7.4,19.3-2.2,26.4,18.3c0.9,2.6,1.9,5.4,4.2,6.9
		C4892.8,671.3,4914,658.4,4919.8,655.9z"/>
	<path class="st0" d="M4593,398.2c0.4,0.3,0.9,0.6,1.3,0.8c3.5,1.4,7.7-0.9,12.6-2.9c7.1-2.8,15.1-6.2,19.7-7.9
		c14.6-5.1,29.2-10.3,43.8-15.6c26-9.4,52.1-18.8,77.8-29.1c11.2-4.5,3.6-13.6,0.4-22.9c-4-11.5-8.1-23-12.1-34.4
		c-16.2-45.3-36-89.3-51.4-134.8c-3.2-9.5-9.4-12-18.4-8.5c-27.5,10.5-51.3,19.5-78.8,29.9c-13.5,5.1-27,10.2-40.5,15.3
		c-9.8,3.7-27.4,5.8-26.9,19.3c0.2,4.2,1.8,8.1,3.3,12c21.3,52.2,40.7,105,60.3,157.9C4585.9,382.3,4588.2,394.5,4593,398.2z"/>
	<path class="st0" d="M4682.8,90c0,0,0.1,0.1,0.1,0.1c0.4,0.2,0.8-0.1,1.3-0.3c0.8-0.3,1.6-0.7,2.1-0.8c1.5-0.5,3.1-1.1,4.6-1.7
		c2.8-1,5.5-2,8.2-3.1c1.2-0.5,0.4-1.5,0-2.6c-0.5-1.3-0.9-2.6-1.4-3.9c-1.9-5.2-4.1-10.2-5.9-15.5c-0.4-1.1-1-1.4-2-1
		c-2.9,1.1-5.4,2.1-8.3,3.2c-1.4,0.5-2.9,1.1-4.3,1.6c-1,0.4-2.9,0.6-2.8,2.1c0,0.5,0.2,0.9,0.4,1.4c2.4,6,4.7,12,6.9,18.1
		C4682,88.2,4682.3,89.6,4682.8,90z"/>
	<path class="st0" d="M4697.7,130.2c0,0,0.1,0.1,0.1,0.1c0.4,0.2,0.8-0.1,1.3-0.3c0.8-0.3,1.6-0.7,2.1-0.8c1.5-0.5,3.1-1.1,4.6-1.7
		c2.8-1,5.5-2,8.2-3.1c1.2-0.5,0.4-1.5,0-2.6c-0.5-1.3-0.9-2.6-1.4-3.9c-1.9-5.2-4.1-10.2-5.9-15.5c-0.4-1.1-1-1.4-2-1
		c-2.9,1.1-5.4,2.1-8.3,3.2c-1.4,0.5-2.9,1.1-4.3,1.6c-1,0.4-2.9,0.6-2.8,2.1c0,0.5,0.2,0.9,0.4,1.4c2.4,6,4.7,12,6.9,18.1
		C4696.9,128.3,4697.2,129.7,4697.7,130.2z"/>
	<path class="st0" d="M4712.6,170.3c0,0,0.1,0.1,0.1,0.1c0.4,0.2,0.8-0.1,1.3-0.3c0.8-0.3,1.6-0.7,2.1-0.8c1.5-0.5,3.1-1.1,4.6-1.7
		c2.8-1,5.5-2,8.2-3.1c1.2-0.5,0.4-1.5,0-2.6c-0.5-1.3-0.9-2.6-1.4-3.9c-1.9-5.2-4.1-10.2-5.9-15.5c-0.4-1.1-1-1.4-2-1
		c-2.9,1.1-5.4,2.1-8.3,3.2c-1.4,0.5-2.9,1.1-4.3,1.6c-1,0.4-2.9,0.6-2.8,2.1c0,0.5,0.2,0.9,0.4,1.4c2.4,6,4.7,12,6.9,18.1
		C4711.8,168.5,4712.1,169.9,4712.6,170.3z"/>
	<path class="st0" d="M4727.5,210.4c0,0,0.1,0.1,0.1,0.1c0.4,0.2,0.8-0.1,1.3-0.3c0.8-0.3,1.6-0.7,2.1-0.8c1.5-0.5,3.1-1.1,4.6-1.7
		c2.8-1,5.5-2,8.2-3.1c1.2-0.5,0.4-1.5,0-2.6c-0.5-1.3-0.9-2.6-1.4-3.9c-1.9-5.2-4.1-10.2-5.9-15.5c-0.4-1.1-1-1.4-2-1
		c-2.9,1.1-5.4,2.1-8.3,3.2c-1.4,0.5-2.9,1.1-4.3,1.6c-1,0.4-2.9,0.6-2.8,2.1c0,0.5,0.2,0.9,0.4,1.4c2.4,6,4.7,12,6.9,18.1
		C4726.8,208.6,4727,210,4727.5,210.4z"/>
	<path class="st0" d="M4742.5,250.6c0,0,0.1,0.1,0.1,0.1c0.4,0.2,0.8-0.1,1.3-0.3c0.8-0.3,1.6-0.7,2.1-0.8c1.5-0.5,3.1-1.1,4.6-1.7
		c2.8-1,5.5-2,8.2-3.1c1.2-0.5,0.4-1.5,0-2.6c-0.5-1.3-0.9-2.6-1.4-3.9c-1.9-5.2-4.1-10.2-5.9-15.5c-0.4-1.1-1-1.4-2-1
		c-2.9,1.1-5.4,2.1-8.3,3.2c-1.4,0.5-2.9,1.1-4.3,1.6c-1,0.4-2.9,0.6-2.8,2.1c0,0.5,0.2,0.9,0.4,1.4c2.4,6,4.7,12,6.9,18.1
		C4741.7,248.8,4742,250.1,4742.5,250.6z"/>
	<path class="st0" d="M4757.4,290.7c0,0,0.1,0.1,0.1,0.1c0.4,0.2,0.8-0.1,1.3-0.3c0.8-0.3,1.6-0.7,2.1-0.8c1.5-0.5,3.1-1.1,4.6-1.7
		c2.8-1,5.5-2,8.2-3.1c1.2-0.5,0.4-1.5,0-2.6c-0.5-1.3-0.9-2.6-1.4-3.9c-1.9-5.2-4.1-10.2-5.9-15.5c-0.4-1.1-1-1.4-2-1
		c-2.9,1.1-5.4,2.1-8.3,3.2c-1.4,0.5-2.9,1.1-4.3,1.6c-1,0.4-2.9,0.6-2.8,2.1c0,0.5,0.2,0.9,0.4,1.4c2.4,6,4.7,12,6.9,18.1
		C4756.6,288.9,4756.9,290.3,4757.4,290.7z"/>
	<path class="st0" d="M4772.3,330.9c0,0,0.1,0.1,0.1,0.1c0.4,0.2,0.8-0.1,1.3-0.3c0.8-0.3,1.6-0.7,2.1-0.8c1.5-0.5,3.1-1.1,4.6-1.7
		c2.8-1,5.5-2,8.2-3.1c1.2-0.5,0.4-1.5,0-2.6c-0.5-1.3-0.9-2.6-1.4-3.9c-1.9-5.2-4.1-10.2-5.9-15.5c-0.4-1.1-1-1.4-2-1
		c-2.9,1.1-5.4,2.1-8.3,3.2c-1.4,0.5-2.9,1.1-4.3,1.6c-1,0.4-2.9,0.6-2.8,2.1c0,0.5,0.2,0.9,0.4,1.4c2.4,6,4.7,12,6.9,18.1
		C4771.5,329,4771.8,330.4,4772.3,330.9z"/>
	<path class="st0" d="M4787.3,371c0,0,0.1,0.1,0.1,0.1c0.4,0.2,0.8-0.1,1.3-0.3c0.8-0.3,1.6-0.7,2.1-0.8c1.5-0.5,3.1-1.1,4.6-1.7
		c2.8-1,5.5-2,8.2-3.1c1.2-0.5,0.4-1.5,0-2.6c-0.5-1.3-0.9-2.6-1.4-3.9c-1.9-5.2-4.1-10.2-5.9-15.5c-0.4-1.1-1-1.4-2-1
		c-2.9,1.1-5.4,2.1-8.3,3.2c-1.4,0.5-2.9,1.1-4.3,1.6c-1,0.4-2.9,0.6-2.8,2.1c0,0.5,0.2,0.9,0.4,1.4c2.4,6,4.7,12,6.9,18.1
		C4786.5,369.2,4786.7,370.6,4787.3,371z"/>
	<path class="st0" d="M4802.2,411.1c0,0,0.1,0.1,0.1,0.1c0.4,0.2,0.8-0.1,1.3-0.3c0.8-0.3,1.6-0.7,2.1-0.8c1.5-0.5,3.1-1.1,4.6-1.7
		c2.8-1,5.5-2,8.2-3.1c1.2-0.5,0.4-1.5,0-2.6c-0.5-1.3-0.9-2.6-1.4-3.9c-1.9-5.2-4.1-10.2-5.9-15.5c-0.4-1.1-1-1.4-2-1
		c-2.9,1.1-5.4,2.1-8.3,3.2c-1.4,0.5-2.9,1.1-4.3,1.6c-1,0.4-2.9,0.6-2.8,2.1c0,0.5,0.2,0.9,0.4,1.4c2.4,6,4.7,12,6.9,18.1
		C4801.4,409.3,4801.7,410.7,4802.2,411.1z"/>
	<path class="st0" d="M4817.1,451.3c0,0,0.1,0.1,0.1,0.1c0.4,0.2,0.8-0.1,1.3-0.3c0.8-0.3,1.6-0.7,2.1-0.8c1.5-0.5,3.1-1.1,4.6-1.7
		c2.8-1,5.5-2,8.2-3.1c1.2-0.5,0.4-1.5,0-2.6c-0.5-1.3-0.9-2.6-1.4-3.9c-1.9-5.2-4.1-10.2-5.9-15.5c-0.4-1.1-1-1.4-2-1
		c-2.9,1.1-5.4,2.1-8.3,3.2c-1.4,0.5-2.9,1.1-4.3,1.6c-1,0.4-2.9,0.6-2.8,2.1c0,0.5,0.2,0.9,0.4,1.4c2.4,6,4.7,12,6.9,18.1
		C4816.3,449.5,4816.6,450.8,4817.1,451.3z"/>
	<path class="st0" d="M4832,491.4c0,0,0.1,0.1,0.1,0.1c0.4,0.2,0.8-0.1,1.3-0.3c0.8-0.3,1.6-0.7,2.1-0.8c1.5-0.5,3.1-1.1,4.6-1.7
		c2.8-1,5.5-2,8.2-3.1c1.2-0.5,0.4-1.5,0-2.6c-0.5-1.3-0.9-2.6-1.4-3.9c-1.9-5.2-4.1-10.2-5.9-15.5c-0.4-1.1-1-1.4-2-1
		c-2.9,1.1-5.4,2.1-8.3,3.2c-1.4,0.5-2.9,1.1-4.3,1.6c-1,0.4-2.9,0.6-2.8,2.1c0,0.5,0.2,0.9,0.4,1.4c2.4,6,4.7,12,6.9,18.1
		C4831.2,489.6,4831.5,491,4832,491.4z"/>
	<path class="st0" d="M4847,531.6c0,0,0.1,0.1,0.1,0.1c0.4,0.2,0.8-0.1,1.3-0.3c0.8-0.3,1.6-0.7,2.1-0.8c1.5-0.5,3.1-1.1,4.6-1.7
		c2.8-1,5.5-2,8.2-3.1c1.2-0.5,0.4-1.5,0-2.6c-0.5-1.3-0.9-2.6-1.4-3.9c-1.9-5.2-4.1-10.2-5.9-15.5c-0.4-1.1-1-1.4-2-1
		c-2.9,1.1-5.4,2.1-8.3,3.2c-1.4,0.5-2.9,1.1-4.3,1.6c-1,0.4-2.9,0.6-2.8,2.1c0,0.5,0.2,0.9,0.4,1.4c2.4,6,4.7,12,6.9,18.1
		C4846.2,529.7,4846.4,531.1,4847,531.6z"/>
	<path class="st0" d="M4861.9,571.7c0,0,0.1,0.1,0.1,0.1c0.4,0.2,0.8-0.1,1.3-0.3c0.8-0.3,1.6-0.7,2.1-0.8c1.5-0.5,3.1-1.1,4.6-1.7
		c2.8-1,5.5-2,8.2-3.1c1.2-0.5,0.4-1.5,0-2.6c-0.5-1.3-0.9-2.6-1.4-3.9c-1.9-5.2-4.1-10.2-5.9-15.5c-0.4-1.1-1-1.4-2-1
		c-2.9,1.1-5.4,2.1-8.3,3.2c-1.4,0.5-2.9,1.1-4.3,1.6c-1,0.4-2.9,0.6-2.8,2.1c0,0.5,0.2,0.9,0.4,1.4c2.4,6,4.7,12,6.9,18.1
		C4861.1,569.9,4861.4,571.3,4861.9,571.7z"/>
	<path class="st0" d="M4876.8,611.8c0,0,0.1,0.1,0.1,0.1c0.4,0.2,0.8-0.1,1.3-0.3c0.8-0.3,1.6-0.7,2.1-0.8c1.5-0.5,3.1-1.1,4.6-1.7
		c2.8-1,5.5-2,8.2-3.1c1.2-0.5,0.4-1.5,0-2.6c-0.5-1.3-0.9-2.6-1.4-3.9c-1.9-5.2-4.1-10.2-5.9-15.5c-0.4-1.1-1-1.4-2-1
		c-2.9,1.1-5.4,2.1-8.3,3.2c-1.4,0.5-2.9,1.1-4.3,1.6c-1,0.4-2.9,0.6-2.8,2.1c0,0.5,0.2,0.9,0.4,1.4c2.4,6,4.7,12,6.9,18.1
		C4876,610,4876.3,611.4,4876.8,611.8z"/>
	<path class="st0" d="M4891.7,652c0,0,0.1,0.1,0.1,0.1c0.4,0.2,0.8-0.1,1.3-0.3c0.8-0.3,1.6-0.7,2.1-0.8c1.5-0.5,3.1-1.1,4.6-1.7
		c2.8-1,5.5-2,8.2-3.1c1.2-0.5,0.4-1.5,0-2.6c-0.5-1.3-0.9-2.6-1.4-3.9c-1.9-5.2-4.1-10.2-5.9-15.5c-0.4-1.1-1-1.4-2-1
		c-2.9,1.1-5.4,2.1-8.3,3.2c-1.4,0.5-2.9,1.1-4.3,1.6c-1,0.4-2.9,0.6-2.8,2.1c0,0.5,0.2,0.9,0.4,1.4c2.4,6,4.7,12,6.9,18.1
		C4890.9,650.2,4891.2,651.5,4891.7,652z"/>
	<path class="st0" d="M4462.5,171.5c0,0,0.1,0.1,0.1,0.1c0.4,0.2,0.8-0.1,1.3-0.3c0.8-0.3,1.6-0.7,2.1-0.8c1.5-0.5,3.1-1.1,4.6-1.7
		c2.8-1,5.5-2,8.2-3.1c1.2-0.5,0.4-1.5,0-2.6c-0.5-1.3-0.9-2.6-1.4-3.9c-1.9-5.2-4.1-10.2-5.9-15.5c-0.4-1.1-1-1.4-2-1
		c-2.9,1.1-5.4,2.1-8.3,3.2c-1.4,0.5-2.9,1.1-4.3,1.6c-1,0.4-2.9,0.6-2.8,2.1c0,0.5,0.2,0.9,0.4,1.4c2.4,6,4.7,12,6.9,18.1
		C4461.7,169.7,4462,171.1,4462.5,171.5z"/>
	<path class="st0" d="M4477.4,211.7c0,0,0.1,0.1,0.1,0.1c0.4,0.2,0.8-0.1,1.3-0.3c0.8-0.3,1.6-0.7,2.1-0.8c1.5-0.5,3.1-1.1,4.6-1.7
		c2.8-1,5.5-2,8.2-3.1c1.2-0.5,0.4-1.5,0-2.6c-0.5-1.3-0.9-2.6-1.4-3.9c-1.9-5.2-4.1-10.2-5.9-15.5c-0.4-1.1-1-1.4-2-1
		c-2.9,1.1-5.4,2.1-8.3,3.2c-1.4,0.5-2.9,1.1-4.3,1.6c-1,0.4-2.9,0.6-2.8,2.1c0,0.5,0.2,0.9,0.4,1.4c2.4,6,4.7,12,6.9,18.1
		C4476.6,209.8,4476.9,211.2,4477.4,211.7z"/>
	<path class="st0" d="M4492.3,251.8c0,0,0.1,0.1,0.1,0.1c0.4,0.2,0.8-0.1,1.3-0.3c0.8-0.3,1.6-0.7,2.1-0.8c1.5-0.5,3.1-1.1,4.6-1.7
		c2.8-1,5.5-2,8.2-3.1c1.2-0.5,0.4-1.5,0-2.6c-0.5-1.3-0.9-2.6-1.4-3.9c-1.9-5.2-4.1-10.2-5.9-15.5c-0.4-1.1-1-1.4-2-1
		c-2.9,1.1-5.4,2.1-8.3,3.2c-1.4,0.5-2.9,1.1-4.3,1.6c-1,0.4-2.9,0.6-2.8,2.1c0,0.5,0.2,0.9,0.4,1.4c2.4,6,4.7,12,6.9,18.1
		C4491.5,250,4491.8,251.4,4492.3,251.8z"/>
	<path class="st0" d="M4507.3,291.9c0,0,0.1,0.1,0.1,0.1c0.4,0.2,0.8-0.1,1.3-0.3c0.8-0.3,1.6-0.7,2.1-0.8c1.5-0.5,3.1-1.1,4.6-1.7
		c2.8-1,5.5-2,8.2-3.1c1.2-0.5,0.4-1.5,0-2.6c-0.5-1.3-0.9-2.6-1.4-3.9c-1.9-5.2-4.1-10.2-5.9-15.5c-0.4-1.1-1-1.4-2-1
		c-2.9,1.1-5.4,2.1-8.3,3.2c-1.4,0.5-2.9,1.1-4.3,1.6c-1,0.4-2.9,0.6-2.8,2.1c0,0.5,0.2,0.9,0.4,1.4c2.4,6,4.7,12,6.9,18.1
		C4506.5,290.1,4506.7,291.5,4507.3,291.9z"/>
	<path class="st0" d="M4522.2,332.1c0,0,0.1,0.1,0.1,0.1c0.4,0.2,0.8-0.1,1.3-0.3c0.8-0.3,1.6-0.7,2.1-0.8c1.5-0.5,3.1-1.1,4.6-1.7
		c2.8-1,5.5-2,8.2-3.1c1.2-0.5,0.4-1.5,0-2.6c-0.5-1.3-0.9-2.6-1.4-3.9c-1.9-5.2-4.1-10.2-5.9-15.5c-0.4-1.1-1-1.4-2-1
		c-2.9,1.1-5.4,2.1-8.3,3.2c-1.4,0.5-2.9,1.1-4.3,1.6c-1,0.4-2.9,0.6-2.8,2.1c0,0.5,0.2,0.9,0.4,1.4c2.4,6,4.7,12,6.9,18.1
		C4521.4,330.2,4521.7,331.6,4522.2,332.1z"/>
	<path class="st0" d="M4537.1,372.2c0,0,0.1,0.1,0.1,0.1c0.4,0.2,0.8-0.1,1.3-0.3c0.8-0.3,1.6-0.7,2.1-0.8c1.5-0.5,3.1-1.1,4.6-1.7
		c2.8-1,5.5-2,8.2-3.1c1.2-0.5,0.4-1.5,0-2.6c-0.5-1.3-0.9-2.6-1.4-3.9c-1.9-5.2-4.1-10.2-5.9-15.5c-0.4-1.1-1-1.4-2-1
		c-2.9,1.1-5.4,2.1-8.3,3.2c-1.4,0.5-2.9,1.1-4.3,1.6c-1,0.4-2.9,0.6-2.8,2.1c0,0.5,0.2,0.9,0.4,1.4c2.4,6,4.7,12,6.9,18.1
		C4536.3,370.4,4536.6,371.8,4537.1,372.2z"/>
	<path class="st0" d="M4552,412.3c0,0,0.1,0.1,0.1,0.1c0.4,0.2,0.8-0.1,1.3-0.3c0.8-0.3,1.6-0.7,2.1-0.8c1.5-0.5,3.1-1.1,4.6-1.7
		c2.8-1,5.5-2,8.2-3.1c1.2-0.5,0.4-1.5,0-2.6c-0.5-1.3-0.9-2.6-1.4-3.9c-1.9-5.2-4.1-10.2-5.9-15.5c-0.4-1.1-1-1.4-2-1
		c-2.9,1.1-5.4,2.1-8.3,3.2c-1.4,0.5-2.9,1.1-4.3,1.6c-1,0.4-2.9,0.6-2.8,2.1c0,0.5,0.2,0.9,0.4,1.4c2.4,6,4.7,12,6.9,18.1
		C4551.2,410.5,4551.5,411.9,4552,412.3z"/>
	<path class="st0" d="M4567,452.5c0,0,0.1,0.1,0.1,0.1c0.4,0.2,0.8-0.1,1.3-0.3c0.8-0.3,1.6-0.7,2.1-0.8c1.5-0.5,3.1-1.1,4.6-1.7
		c2.8-1,5.5-2,8.2-3.1c1.2-0.5,0.4-1.5,0-2.6c-0.5-1.3-0.9-2.6-1.4-3.9c-1.9-5.2-4.1-10.2-5.9-15.5c-0.4-1.1-1-1.4-2-1
		c-2.9,1.1-5.4,2.1-8.3,3.2c-1.4,0.5-2.9,1.1-4.3,1.6c-1,0.4-2.9,0.6-2.8,2.1c0,0.5,0.2,0.9,0.4,1.4c2.4,6,4.7,12,6.9,18.1
		C4566.2,450.7,4566.4,452,4567,452.5z"/>
	<path class="st0" d="M4581.9,492.6c0,0,0.1,0.1,0.1,0.1c0.4,0.2,0.8-0.1,1.3-0.3c0.8-0.3,1.6-0.7,2.1-0.8c1.5-0.5,3.1-1.1,4.6-1.7
		c2.8-1,5.5-2,8.2-3.1c1.2-0.5,0.4-1.5,0-2.6c-0.5-1.3-0.9-2.6-1.4-3.9c-1.9-5.2-4.1-10.2-5.9-15.5c-0.4-1.1-1-1.4-2-1
		c-2.9,1.1-5.4,2.1-8.3,3.2c-1.4,0.5-2.9,1.1-4.3,1.6c-1,0.4-2.9,0.6-2.8,2.1c0,0.5,0.2,0.9,0.4,1.4c2.4,6,4.7,12,6.9,18.1
		C4581.1,490.8,4581.4,492.2,4581.9,492.6z"/>
	<path class="st0" d="M4596.8,532.8c0,0,0.1,0.1,0.1,0.1c0.4,0.2,0.8-0.1,1.3-0.3c0.8-0.3,1.6-0.7,2.1-0.8c1.5-0.5,3.1-1.1,4.6-1.7
		c2.8-1,5.5-2,8.2-3.1c1.2-0.5,0.4-1.5,0-2.6c-0.5-1.3-0.9-2.6-1.4-3.9c-1.9-5.2-4.1-10.2-5.9-15.5c-0.4-1.1-1-1.4-2-1
		c-2.9,1.1-5.4,2.1-8.3,3.2c-1.4,0.5-2.9,1.1-4.3,1.6c-1,0.4-2.9,0.6-2.8,2.1c0,0.5,0.2,0.9,0.4,1.4c2.4,6,4.7,12,6.9,18.1
		C4596,530.9,4596.3,532.3,4596.8,532.8z"/>
	<path class="st0" d="M4611.7,572.9c0,0,0.1,0.1,0.1,0.1c0.4,0.2,0.8-0.1,1.3-0.3c0.8-0.3,1.6-0.7,2.1-0.8c1.5-0.5,3.1-1.1,4.6-1.7
		c2.8-1,5.5-2,8.2-3.1c1.2-0.5,0.4-1.5,0-2.6c-0.5-1.3-0.9-2.6-1.4-3.9c-1.9-5.2-4.1-10.2-5.9-15.5c-0.4-1.1-1-1.4-2-1
		c-2.9,1.1-5.4,2.1-8.3,3.2c-1.4,0.5-2.9,1.1-4.3,1.6c-1,0.4-2.9,0.6-2.8,2.1c0,0.5,0.2,0.9,0.4,1.4c2.4,6,4.7,12,6.9,18.1
		C4610.9,571.1,4611.2,572.5,4611.7,572.9z"/>
	<path class="st0" d="M4626.7,613c0,0,0.1,0.1,0.1,0.1c0.4,0.2,0.8-0.1,1.3-0.3c0.8-0.3,1.6-0.7,2.1-0.8c1.5-0.5,3.1-1.1,4.6-1.7
		c2.8-1,5.5-2,8.2-3.1c1.2-0.5,0.4-1.5,0-2.6c-0.5-1.3-0.9-2.6-1.4-3.9c-1.9-5.2-4.1-10.2-5.9-15.5c-0.4-1.1-1-1.4-2-1
		c-2.9,1.1-5.4,2.1-8.3,3.2c-1.4,0.5-2.9,1.1-4.3,1.6c-1,0.4-2.9,0.6-2.8,2.1c0,0.5,0.2,0.9,0.4,1.4c2.4,6,4.7,12,6.9,18.1
		C4625.9,611.2,4626.1,612.6,4626.7,613z"/>
	<path class="st0" d="M4641.6,653.2c0,0,0.1,0.1,0.1,0.1c0.4,0.2,0.8-0.1,1.3-0.3c0.8-0.3,1.6-0.7,2.1-0.8c1.5-0.5,3.1-1.1,4.6-1.7
		c2.8-1,5.5-2,8.2-3.1c1.2-0.5,0.4-1.5,0-2.6c-0.5-1.3-0.9-2.6-1.4-3.9c-1.9-5.2-4.1-10.2-5.9-15.5c-0.4-1.1-1-1.4-2-1
		c-2.9,1.1-5.4,2.1-8.3,3.2c-1.4,0.5-2.9,1.1-4.3,1.6c-1,0.4-2.9,0.6-2.8,2.1c0,0.5,0.2,0.9,0.4,1.4c2.4,6,4.7,12,6.9,18.1
		C4640.8,651.4,4641.1,652.7,4641.6,653.2z"/>
	<path class="st0" d="M4656.5,693.3c0,0,0.1,0.1,0.1,0.1c0.4,0.2,0.8-0.1,1.3-0.3c0.8-0.3,1.6-0.7,2.1-0.8c1.5-0.5,3.1-1.1,4.6-1.7
		c2.8-1,5.5-2,8.2-3.1c1.2-0.5,0.4-1.5,0-2.6c-0.5-1.3-0.9-2.6-1.4-3.9c-1.9-5.2-4.1-10.2-5.9-15.5c-0.4-1.1-1-1.4-2-1
		c-2.9,1.1-5.4,2.1-8.3,3.2c-1.4,0.5-2.9,1.1-4.3,1.6c-1,0.4-2.9,0.6-2.8,2.1c0,0.5,0.2,0.9,0.4,1.4c2.4,6,4.7,12,6.9,18.1
		C4655.7,691.5,4656,692.9,4656.5,693.3z"/>
	<path class="st0" d="M4671.4,733.5c0,0,0.1,0.1,0.1,0.1c0.4,0.2,0.8-0.1,1.3-0.3c0.8-0.3,1.6-0.7,2.1-0.8c1.5-0.5,3.1-1.1,4.6-1.7
		c2.8-1,5.5-2,8.2-3.1c1.2-0.5,0.4-1.5,0-2.6c-0.5-1.3-0.9-2.6-1.4-3.9c-1.9-5.2-4.1-10.2-5.9-15.5c-0.4-1.1-1-1.4-2-1
		c-2.9,1.1-5.4,2.1-8.3,3.2c-1.4,0.5-2.9,1.1-4.3,1.6c-1,0.4-2.9,0.6-2.8,2.1c0,0.5,0.2,0.9,0.4,1.4c2.4,6,4.7,12,6.9,18.1
		C4670.6,731.6,4670.9,733,4671.4,733.5z"/>
	<path class="st0" d="M4687.2,651.7c0.4,0.3,0.9,0.6,1.3,0.8c3.5,1.4,7.7-0.9,12.6-2.9c7.1-2.8,15.1-6.2,19.7-7.9
		c14.6-5.1,29.2-10.3,43.8-15.6c26-9.4,52.1-18.8,77.8-29.1c11.2-4.5,3.6-13.6,0.4-22.9c-4-11.5-8.1-23-12.1-34.4
		c-16.2-45.3-36-89.3-51.4-134.8c-3.2-9.5-9.4-12-18.4-8.5c-27.5,10.5-51.3,19.5-78.8,29.9c-13.5,5.1-27,10.2-40.5,15.3
		c-9.8,3.7-27.4,5.8-26.9,19.3c0.2,4.2,1.8,8.1,3.3,12c21.3,52.2,40.7,105,60.3,157.9C4680.2,635.9,4682.5,648,4687.2,651.7z"/>
</g>
</svg>
