<?xml version="1.0" encoding="utf-8"?>
<!-- Generator: Adobe Illustrator 23.0.5, SVG Export Plug-In . SVG Version: 6.00 Build 0)  -->
<svg version="1.1" xmlns="http://www.w3.org/2000/svg" xmlns:xlink="http://www.w3.org/1999/xlink" x="0px" y="0px"
	 viewBox="0 0 823 739" style="enable-background:new 0 0 823 739;" xml:space="preserve">
<style type="text/css">
	.st0{display:none;}
	.st1{display:inline;fill:#35D3C3;}
	.st2{display:inline;}
	.st3{fill:#FFFFFF;}
	.st4{display:inline;fill:#C130BE;}
	.st5{display:inline;fill:url(#SVGID_1_);}
	.st6{display:inline;fill:url(#SVGID_2_);}
	.st7{fill:#1EAD88;}
	.st8{fill:#19F4BF;}
</style>
<g id="Capa_3" class="st0">
	<path class="st1" d="M-176,60"/>
	<g class="st2">
		<rect x="-89.5" y="-173.5" width="714" height="776"/>
		<path class="st3" d="M624-173v775H-89v-775H624 M625-174H-90v777h715V-174L625-174z"/>
	</g>
</g>
<g id="Capa_2" class="st0">
	<path class="st4" d="M168,119"/>
	
		<radialGradient id="SVGID_1_" cx="445.1956" cy="218.6937" r="183.5681" gradientTransform="matrix(2.1008 0 0 2.0743 -600.2849 -131.63)" gradientUnits="userSpaceOnUse">
		<stop  offset="1.634271e-03" style="stop-color:#8CC63F"/>
		<stop  offset="1" style="stop-color:#C1F93A"/>
	</radialGradient>
	<ellipse class="st5" cx="335" cy="322" rx="375" ry="391"/>
	<radialGradient id="SVGID_2_" cx="266" cy="163" r="0" gradientUnits="userSpaceOnUse">
		<stop  offset="1.634271e-03" style="stop-color:#8CC63F"/>
		<stop  offset="1" style="stop-color:#C1F93A"/>
	</radialGradient>
	<path class="st6" d="M266,163"/>
</g>
<g id="Capa_4">
	<g>
		<g>
			<path class="st7" d="M216.1,112l499.2,238.1c64.5,30.7,62.9,117.7-2.6,146.4L213.5,715C155.9,740.2,90,700.8,90,641.2V184.6
				C90,123.8,158.4,84.5,216.1,112z M170,267.3v292.5c0,38.2,46.3,63.4,86.6,47.3L607,467c46-18.4,47.1-74,1.8-93.7L258.5,220.8
				C218,203.2,170,228.4,170,267.3z"/>
		</g>
		<g>
			<path class="st7" d="M176.6,732.3c-19.2,0-38.2-5.5-54.7-16.3c-26.3-17.2-41.4-44.4-41.4-74.7V184.6c0-30.4,16-58.7,42.7-75.6
				c29.3-18.5,65.6-20.6,97-5.6l499.2,238.1c33.2,15.8,53.4,47.4,52.9,82.5c-0.6,35.2-21.9,66.3-55.8,81.1L217.3,723.7
				C204.2,729.4,190.4,732.3,176.6,732.3z M176.7,112.5c-15.1,0-30.1,4.2-43.3,12.6c-21.5,13.6-33.9,35.3-33.9,59.5v456.6
				c0,23.7,12,45.2,32.8,58.8c23,15.1,51.9,17.4,77.4,6.3l499.2-218.6c27.3-12,43.9-35.9,44.4-64c0.5-28-15.3-52.3-42-65.1
				L212,120.6C200.7,115.2,188.7,112.5,176.7,112.5z M230.9,621.4c-15.3,0-30.5-4.4-43.2-13c-17.3-11.7-27.2-29.5-27.2-48.7V267.3
				c0-19.6,10.2-37.6,28.1-49.3c21.5-14.1,49.7-16.3,73.7-5.9l350.3,152.5c24.4,10.6,39.4,32.1,39,56c-0.4,24.1-16.1,45.3-41.1,55.3
				l-350.3,140C250.8,619.6,240.8,621.4,230.9,621.4z M230.9,224.6c-11.3,0-22.4,3.1-31.8,9.3c-12.4,8.1-19.5,20.3-19.5,33.4v292.5
				c0,12.8,6.9,24.9,18.9,33c15.7,10.6,36.6,12.7,54.8,5.4l350.3-140c18-7.2,28.9-21.4,29.2-37.9c0.2-16.4-10.1-30.7-27.6-38.3
				L254.7,229.5C247.1,226.2,239,224.6,230.9,224.6z"/>
		</g>
	</g>
	<g>
		<g>
			<path class="st8" d="M216.3,25.2l499.2,245c64.5,31.6,62.9,121.1-2.6,150.6L213.7,645.8c-57.5,25.9-123.5-14.6-123.5-75.9V99.9
				C90.2,37.4,158.6-3.1,216.3,25.2z M170.2,185v301c0,39.3,46.3,65.2,86.6,48.6l350.3-144.1c46-18.9,47.1-76.2,1.8-96.5
				L258.7,137.2C218.2,119,170.2,145,170.2,185z"/>
		</g>
		<g>
			<path class="st8" d="M176.9,663.2c-18.6,0-37.2-5.3-53.4-15.8c-26.8-17.3-42.8-46.3-42.8-77.6V99.9c0-31.9,16.5-61.2,44.2-78.4
				c29.1-18.1,64.8-19.9,95.6-4.8l499.2,245c33.1,16.3,53.4,48.7,52.8,84.7c-0.6,36.1-21.9,67.9-55.7,83.1L217.6,654.4
				C204.5,660.3,190.7,663.2,176.9,663.2z M176.9,25.5c-14.6,0-29.1,4.1-42,12.1c-22,13.7-35.2,37-35.2,62.3v469.9
				c0,25.1,12.4,47.6,34.1,61.6c22.8,14.7,51.1,16.8,75.9,5.6L709,412.2c27.4-12.3,44-37,44.5-66.1c0.5-29-15.3-54.2-42.1-67.3
				l-499.2-245C200.9,28.2,188.9,25.5,176.9,25.5z M231.1,549.2c-15,0-29.8-4.3-42.2-12.6c-17.9-12-28.2-30.4-28.2-50.6V185
				c0-20.5,10.6-39.2,29.1-51.2c21.4-13.8,49.3-15.9,72.8-5.3l350.3,156.9c24.4,10.9,39.3,32.9,38.9,57.4
				c-0.4,24.6-16.1,46.3-41,56.5L260.5,543.4C251.1,547.3,241.1,549.2,231.1,549.2z M231.1,140.8c-10.9,0-21.7,3-30.9,9
				c-13,8.4-20.4,21.2-20.4,35.2v301c0,13.7,7.2,26.4,19.8,34.8c15.5,10.4,36.1,12.3,53.8,5.1l350.3-144.1
				c18.1-7.4,29-22.1,29.3-39.3c0.3-17-10.1-31.9-27.7-39.8L254.8,145.8C247.3,142.5,239.2,140.8,231.1,140.8z"/>
		</g>
	</g>
</g>
<g id="Capa_5">
</g>
</svg>
